:SAMPLES-PER-SECOND 30
:FULLY-SPECIFIED
:DEGREES
698
root  1.72004 39.8633 -5.22555 16.4694 69.1379 13.1736
RightUpLeg  4.24298 -11.7921 -7.12887
RightLeg  12.7478 -19.541 1.67739
RightFoot  -19.0519 0.0824297 3.13937
RightToes  0.00048216 0.542163 -0.142577
Spine  12.0315 0.45688 4.73705
Spine1  5.40359 1.96761 -3.99697
HEad  9.91124 12.0476 -4.45937
LeftShoulder1  8.36511 -12.3135 -46.1226
LeftArm  -11.3682 25.5291 -26.3306
LeftForeArm  35.4065 -34.905 -5.7555
LeftHand  -0.25398 0.0180481 5.50724
RightShoulder  5.03787 8.40481 36.3148
RightArm  0.516855 -10.5577 37.5334
RightForeArm  -2.9565 23.9251 5.26575
RightHand  -1.8129 4.25184 -21.9173
LeftUpLeg  -25.274 28.3293 -8.99024
LeftLeg  38.1189 15.0033 12.6302
LeftFoot  0.885686 -0.214709 1.99027
LeftToes  1.06245e-005 4.65856e-005 -8.18504e-006
699
root  1.84441 39.8492 -5.054 17.0471 68.3806 13.6908
RightUpLeg  4.30781 -11.6699 -7.34268
RightLeg  12.7011 -19.2034 1.5969
RightFoot  -19.1147 0.0709346 2.94828
RightToes  0.00048216 0.542163 -0.142577
Spine  12.0484 0.639299 4.80867
Spine1  5.09903 2.24783 -4.5788
HEad  9.87035 12.0398 -4.58394
LeftShoulder1  8.29017 -12.2068 -46.0161
LeftArm  -11.9083 25.4472 -26.2712
LeftForeArm  35.1721 -34.6059 -5.69314
LeftHand  -0.25398 0.0180481 5.50724
RightShoulder  5.03446 8.40282 36.294
RightArm  0.04425 -11.2904 37.8406
RightForeArm  -4.02457 23.864 5.30529
RightHand  -1.9177 4.60232 -22.3656
LeftUpLeg  -27.031 25.2416 -9.05664
LeftLeg  37.9487 8.88438 7.76282
LeftFoot  0.717317 -0.0326435 0.242406
LeftToes  1.06245e-005 4.65856e-005 -8.18504e-006
700
root  2.06011 39.8694 -4.85315 18.4756 67.6276 15.1225
RightUpLeg  4.77696 -11.5984 -7.92074
RightLeg  12.0879 -18.9297 1.57284
RightFoot  -19.0105 0.0505122 2.67464
RightToes  0.00048216 0.542163 -0.142577
Spine  12.0661 0.920892 4.49979
Spine1  4.95773 2.59072 -5.13747
HEad  9.38624 11.9359 -4.97696
LeftShoulder1  8.25031 -12.1515 -45.9547
LeftArm  -12.4896 25.4169 -26.3104
LeftForeArm  34.3517 -34.0755 -5.60616
LeftHand  -0.25398 0.0180481 5.50724
RightShoulder  5.05179 8.48481 36.1531
RightArm  0.708775 -12.1736 37.9761
RightForeArm  -4.75433 23.599 5.28847
RightHand  -1.86195 4.37806 -22.2084
LeftUpLeg  -27.8623 22.7111 -9.7614
LeftLeg  35.2756 6.01785 4.89879
LeftFoot  -0.3581 0.236073 -2.43405
LeftToes  1.06245e-005 4.65856e-005 -8.18504e-006
701
root  2.34254 39.8918 -4.6365 19.8597 66.8448 16.5211
RightUpLeg  5.55618 -11.6605 -8.68338
RightLeg  11.1231 -18.1432 1.77434
RightFoot  -19.0326 0.0666882 2.90903
RightToes  0.00048216 0.542163 -0.142577
Spine  12.1137 1.27756 4.13887
Spine1  5.01533 3.0454 -5.78263
HEad  8.62091 11.6934 -5.4295
LeftShoulder1  8.26379 -12.1844 -45.9326
LeftArm  -12.7244 25.4207 -26.3064
LeftForeArm  33.5302 -33.4753 -5.50315
LeftHand  -0.25398 0.0180481 5.50724
RightShoulder  5.05817 8.56946 35.9163
RightArm  2.04361 -12.9629 38.0055
RightForeArm  -4.42143 23.087 5.20623
RightHand  -1.68496 3.7735 -21.4317
LeftUpLeg  -28.0514 21.2874 -10.9499
LeftLeg  30.7531 6.82869 4.68569
LeftFoot  -1.70027 0.26261 -2.9632
LeftToes  1.06245e-005 4.65856e-005 -8.18504e-006
702
root  2.70771 39.8845 -4.41208 20.7184 66.053 17.2055
RightUpLeg  6.37172 -11.6518 -9.27021
RightLeg  10.0452 -17.4184 2.10148
RightFoot  -19.0619 0.0819093 3.12655
RightToes  0.00048216 0.542163 -0.142577
Spine  11.9262 1.62355 3.96441
Spine1  5.28925 3.55545 -6.51378
HEad  7.90083 11.499 -5.86167
LeftShoulder1  8.23985 -12.1697 -45.8394
LeftArm  -12.8114 25.5765 -26.2961
LeftForeArm  33.0515 -32.9921 -5.41117
LeftHand  -0.25398 0.0180481 5.50724
RightShoulder  5.06533 8.64746 35.711
RightArm  3.77982 -13.4903 37.9159
RightForeArm  -3.50512 22.2919 5.14913
RightHand  -1.47671 3.07898 -20.3376
LeftUpLeg  -28.1386 21.3155 -12.4646
LeftLeg  25.231 8.13676 4.50937
LeftFoot  -2.68334 0.158266 -1.88767
LeftToes  1.06245e-005 4.65856e-005 -8.18504e-006
